<svg width="81" height="81" viewBox="0 0 81 81" fill="none" xmlns="http://www.w3.org/2000/svg">
<path d="M15.4494 74.7541C23.2893 76.0753 27.6114 72.4239 27.6409 64.4896C27.7134 44.9706 27.6645 25.4511 27.6643 5.93179C27.6643 4.61837 27.6643 3.30495 27.6643 1C30.1712 3.98545 32.1164 6.10018 35.4069 6.06575C36.5898 6.05337 36.7486 7.39827 36.7419 8.37204C36.6146 26.8985 37.6803 45.4575 36.2263 63.9409C35.4289 74.0772 26.8683 80.6387 17.1341 79.9506C8.3139 79.3271 1.07153 71.119 1.03481 61.4659C0.969419 44.2794 1.01325 27.0925 1.02935 9.90575C1.03048 8.70009 0.819458 7.43803 1.69041 6.16163C4.62791 6.0813 7.13713 4.78983 8.86094 1.97625C10.1004 3.74856 9.65206 5.25409 9.65446 6.65463C9.68703 25.6828 9.6655 44.7111 9.67819 63.7394C9.68121 68.2725 10.9164 72.2241 15.4494 74.7541Z" fill="white"/>
<path d="M66.549 16.5302C61.3883 23.5019 56.4371 30.3203 51.3219 37.0138C49.8747 38.9075 49.8977 40.2226 51.3414 42.1407C58.7687 52.0077 66.0466 61.9868 73.3673 71.9337C74.0932 72.9201 75.0792 73.7998 75.0603 75.9037C71.9434 74.233 68.6537 74.2321 66.5005 71.1261C61.5702 64.0141 56.3525 57.1004 51.2339 50.1191C50.5676 49.2103 50.0137 48.165 48.37 47.4559C48.37 52.7039 48.3709 57.7149 48.3696 62.7259C48.369 65.0335 48.3276 67.3419 48.3729 69.6485C48.4069 71.3765 47.9769 72.5094 45.9264 72.5947C43.3509 72.7019 42.0943 74.8003 40.5258 77C39.5156 74.8269 40.2728 73.0118 40.2675 71.292C40.2075 51.7929 40.2596 32.2935 40.2141 12.7943C40.2083 10.3019 40.189 8.23394 43.5839 8.15067C45.4184 8.10567 46.1721 6.01296 48.176 4.73485C48.176 13.7535 48.176 22.3858 48.176 31.0537C49.9976 31.1001 50.3684 30.0013 50.9397 29.228C56.0151 22.3587 61.081 15.4822 66.1191 8.58555C69.2343 4.32099 69.5617 4.09497 76 3C73.3721 8.10793 69.6229 11.9503 66.549 16.5302Z" fill="white"/>
</svg>
